<?xml version="1.0" encoding="utf-8"?>
<!-- Generator: Adobe Illustrator 26.1.0, SVG Export Plug-In . SVG Version: 6.00 Build 0)  -->
<svg version="1.1" baseProfile="tiny" id="Layer_1" xmlns="http://www.w3.org/2000/svg" xmlns:xlink="http://www.w3.org/1999/xlink"
	 x="0px" y="0px" viewBox="0 0 4081.89 425.2" overflow="visible" xml:space="preserve" width="100%" preserveAspectRatio="xMinYMin slice">
<g>
	<path fill-rule="evenodd" fill="#2F3436" d="M2496.55,199.64c22.22-8.04,21.62-5.63,44.33-1.89c25.86,34.75,25.37,60.57-1.24,95.26
		l-45.67-3.72L2496.55,199.64L2496.55,199.64z M2427.36,81.83c-6.15,39.91-2.66,152.79-1.5,200.03
		c2.2,90.04,157.33,83.45,190.84,17.83c37.26-72.96-7.65-186.54-121.88-152.65c-0.81-18.45,4.52-48.79-7.85-61.74
		C2473.22,70.92,2442.66,74.81,2427.36,81.83z"/>
	<path fill-rule="evenodd" fill="#2F3436" d="M2314.39,198.28c-0.07,12.64,1.66,76.13-0.09,82.96c-5.99,23.31-47.08,11.65-56.2-2.07
		C2233.04,241.44,2253.73,181.57,2314.39,198.28L2314.39,198.28z M2313.58,141.81c-45.61,0.78-110.51-2.65-129.48,68.28
		c-43.29,161.92,194.93,176.63,197.86,76.73c1.67-57.15,3.35-143.57-2.45-198.97c-19.38-12.5-35-11.88-65.19-9.94L2313.58,141.81z"
		/>
	<path fill-rule="evenodd" fill="#2F3436" d="M2778.31,291.27l-35.79,1.44c-60.67-81.58,40.42-141.76,51.76-60.96
		C2798.5,261.84,2791.13,276.07,2778.31,291.27L2778.31,291.27z M2726.64,145.21c-119.95,32.39-86.02,239.72,68.5,198.65
		C2912.87,312.56,2878.4,104.22,2726.64,145.21z"/>
	<path fill-rule="evenodd" fill="#2F3436" d="M1790.62,277.41c9.77-16.52,28.11-14.49,54.63-16.01l-4.6,32.79
		C1815.7,301.73,1795.45,303.34,1790.62,277.41L1790.62,277.41z M1739.78,162.43c-14.88,86.08,84.05-10.86,103.9,49.68
		c-26.24,15.38-140.32-3.39-117.27,86.68c7.61,29.73,29.43,41.36,57.91,46.79c31.2,5.96,68.59,4.36,96.06-7.18
		c32.11-13.49,30.84-31.13,30.73-71.63c-0.08-31.16,3.73-70.17-10.15-92.12C1874.99,133.54,1778.22,128.28,1739.78,162.43z"/>
	<path fill-rule="evenodd" fill="#2F3436" d="M2022.03,341.14l-0.43-140.96c133.34-39.79-26.25,175.69,124.38,141.14
		c-0.37-37.76,5.52-128.75-6.47-157.09c-16.35-38.61-72.81-52.36-125.73-40.06c-68.01,15.8-60.34,35.67-60.35,107.68
		C1953.43,317.4,1940.75,360.64,2022.03,341.14z"/>
	<path fill-rule="evenodd" fill="#2F3436" d="M2887.51,177.33l51.88,63.68c-8.01,12.62-26,32.79-35.15,43.39
		c-14.09,16.32-27.66,42.67-1.19,55.42c40.87,19.69,42.99-10.89,76.77-51.37c7.79,10.64,30.96,43.07,39.43,49.76
		c25.53,20.17,49.96,4,58.73-21.78c-12.17-27.95-39.95-50.33-50.92-74.59c12.06-14.22,100.24-91.51,3.79-97.67
		c-17.74,18.11-30.73,37.46-45.9,55.62c-13.8-14.28-26.94-38.29-42.01-48.81C2916.53,132.55,2893.87,150.96,2887.51,177.33z"/>
	<path fill-rule="evenodd" fill="#2F3436" d="M1628.55,281.67c-13.02,37.66-70.86-1.59-94.11,3.71
		c-32.25,81.64,114.99,72.34,145.55,41.47c17.86-18.05,38.44-81.8-44.88-105.27c-52.79-14.87-32.99-2.95-40.27-19.4
		c32.98-39.47,101.25,41.91,89.01-41.07c-56.64-35.06-130.2-25.98-151.39,18.4c-12.48,26.15-4.07,56.57,18.41,71.6
		C1571.73,265.05,1612.36,261.45,1628.55,281.67z"/>
</g>
<g>
	<path fill-rule="evenodd" fill="#76BC5E" d="M1152.88,85.16c77.48-24.64,112.23,93.09,35.09,115.72
		c-36.55,10.72-65.93-12.49-74.93-39.98C1100.8,123.51,1126.61,93.51,1152.88,85.16L1152.88,85.16z M1295.6,348.16
		c8.07-2.75,13.63-6.62,20.12-11.99c8.64-7.15,13-10.91,16.4-18.82c-65.01,1.22-67.64-36.17-121.55-21.77
		c-19.21,5.13-30.77,17.19-54.91,20.34c-30.19,3.93-41.7-4.07-63.66-11.59c2.27-8.7,2.35-7.01,5.76-13.72
		c22.47,5.55,35.27,17.27,65.85,8.11c20.83-6.24,32.6-17.85,56.95-20.24c29.41-2.88,42.16,4.12,63.49,13.95
		c14.32,6.6,52.44,16.99,67.07,3.67c6.48-8.15,15.42-27.09,17.48-39.78c-24.83,7.64-41.71,15.64-72.37,6.51
		c-25.3-7.53-34.74-22.48-68.13-20.63c-30.71,1.7-39.21,15.45-64.86,21.39c-24.7,5.71-55.69,0.17-70.58-12.6
		c2.26-6.17,4.51-7.91,7.65-11.61c53.63,33.73,85.28-15.05,137.83-12.33c40.38,2.09,58.24,33.88,105.09,21.82l23.27-9.43
		c18.65-10.65,8.37-47.03,5.79-65.26c-37.33-4.96-82.25,9.97-102.62-17.15c-21.99-29.26,14.97-63.01,23.51-86.34
		c-56.73-21.82-102.51-31.41-163.61,6.7c-96.69,60.31-96.45,212.89,5.86,271.33c21.79,12.45,53.56-13.33,77.45-17.88
		C1251.12,323.56,1267.48,336.8,1295.6,348.16z"/>
	<path fill-rule="evenodd" fill="#3aaac7" d="M1370.8,358.43c-62.36,21.51-46.23,5.13-72.43,9.83c-4.85,0.87-24.28,9.6-31.14,11.86
		c-63.82,21.01-103.97-5.71-143.15-12.5c-12.88-2.23-22.58-7.44-32.17-10.7c2.77-9.78,3.89-7.47,6.78-17.2
		c-23.27-10.77-49.94-69.55-54.76-101.34c-17.03-112.26,77-214.83,198.69-198.97c27.26,3.56,40.2,14.31,61.05,20.01
		c3.42-10.24,11.71-20.23,16.85-30.87c-1.29-1.27-1.46-1.89-3.89-3.51c-57.94-38.89-163.07-32.02-227.27,17.22
		c-142.74,109.49-95.32,319.99,58.18,371.82c57.56,19.44,129.82,13.76,181.02-20.26C1342.63,384.5,1363.88,370.07,1370.8,358.43z"/>
	<path fill-rule="evenodd" fill="#F78F31" d="M1363.71,156.35c-2.64-14.47-8.49-19.29-12.7-30.65c-11.88-0.19-22.55,1.75-32.19-2.87
		c-1.21-11.27,3.88-16.97,8.65-24.29l-21.31-19.82c-6.4,5.04-14.98,21.47-19.15,28.72c-5.69,9.9-16.09,21.02-9,36.26
		C1286.94,162.91,1329.56,156.05,1363.71,156.35z"/>
	<g>
		<path fill-rule="evenodd" fill="#B4985A" d="M1162.48,114.91c16.32-5.3,33.48,5.52,37.74,19.17c6.1,19.52-7.89,35.12-20.27,38.62
			C1141.36,183.62,1124.26,127.31,1162.48,114.91L1162.48,114.91z M1126.28,151.03c8.95,58.28,100.01,45.91,89.82-15.01
			c-3.79-22.69-25.66-41.41-52.62-37.03C1141.97,102.47,1122.18,124.34,1126.28,151.03z"/>
		<path fill-rule="evenodd" fill="#F78F31" d="M1162.48,114.91c16.32-5.3,33.48,5.52,37.74,19.17c6.1,19.52-7.89,35.12-20.27,38.62
			C1141.36,183.62,1124.26,127.31,1162.48,114.91L1162.48,114.91z M1126.28,151.03c8.95,58.28,100.01,45.91,89.82-15.01
			c-3.79-22.69-25.66-41.41-52.62-37.03C1141.97,102.47,1122.18,124.34,1126.28,151.03z"/>
	</g>
	<path fill-rule="evenodd" fill="#3aaac7" d="M1318.13,352.83c30.3-0.28,34.67-8.28,56.77-17.49c16.08-6.7,22.11-5.54,34.83-42.83
		c-47.3,2.98-53.83,24.31-81.57,50.96C1322.23,349.17,1322.71,346.06,1318.13,352.83z"/>
	<path fill-rule="evenodd" fill="#3aaac7" d="M1391.54,226.33l38.34-2.68l-1.76-52.33l-39.43-0.84
		C1390.95,191.78,1392.94,203.54,1391.54,226.33z"/>
	<path fill-rule="evenodd" fill="#76BC5E" d="M1175.45,365.96c29.74,15.91,75.11,3.43,104.47-5.61
		c-26.64-24.11-64.52-15.23-93.05-0.75l-8.52,4.13c-0.41,0.25-1.14,0.87-1.46,1.08C1176.56,365.02,1175.92,365.57,1175.45,365.96z"
		/>
	<path fill-rule="evenodd" fill="#3aaac7" d="M1376.89,282.15c14.12-1.4,21.91-7.16,43.07-7.05c4.49-8.1,9.17-25.14,7.03-35.32
		c-7.68-0.73-12.41-0.84-20.11-0.19c-9.52,0.8-14.58,0.22-17.93,7.31c-1.32,2.79-3.32,14.69-5.33,19.79
		C1381.61,271.79,1378.36,279.36,1376.89,282.15z"/>
	<path fill-rule="evenodd" fill="#3aaac7" d="M1349.28,96.91l10.65,14.34l43.27,0.05c-10.64-25.99-18.46-26.74-31.79-47.83
		C1364.03,69.39,1353.41,87.9,1349.28,96.91z"/>
	<polygon fill-rule="evenodd" fill="#F78F31" points="1382.11,156.24 1420.98,156.6 1411.55,126.19 1370.39,125.92 	"/>
	<path fill-rule="evenodd" fill="#F78F31" d="M1315.43,66.99c10.02,6.35,14.85,12.5,22.66,16.79c7.78-7.24,15.95-22.1,19.71-32.57
		l-22.41-16.47C1329.13,40.1,1318.99,57.05,1315.43,66.99z"/>
	<path fill-rule="evenodd" fill="#F78F31" d="M1178.19,157.94l7.07-6.67l0.38-15.15c-6.49-6.76-7.43-7.52-20.3-6.97
		C1150.13,142.49,1153.89,160.77,1178.19,157.94z"/>
	<path fill-rule="evenodd" fill="#76BC5E" d="M1405.4,342.01c20.09-0.41,23.57,1.44,41.1,4.73l-0.11-13.27
		c-8.22-5.59-20.36-6.84-32.31-6.42C1409.28,333.38,1408.12,334.93,1405.4,342.01z"/>
	<path fill-rule="evenodd" fill="#76BC5E" d="M1423.4,295.5l14.34,4.21l0.32-16.44C1423.9,281.61,1425.69,280.5,1423.4,295.5z"/>
</g>
</svg>
